<?xml version="1.0" standalone="no"?>
<!DOCTYPE svg PUBLIC "-//W3C//DTD SVG 20010904//EN"
 "http://www.w3.org/TR/2001/REC-SVG-20010904/DTD/svg10.dtd">
<svg version="1.0" xmlns="http://www.w3.org/2000/svg"
 width="512.000000pt" height="512.000000pt" viewBox="0 0 512.000000 512.000000"
 preserveAspectRatio="xMidYMid meet">
<metadata>
Created by potrace 1.14, written by Peter Selinger 2001-2017
</metadata>
<g transform="translate(0.000000,512.000000) scale(0.100000,-0.100000)"
fill="#000000" stroke="none">
<path d="M2486 4607 c-69 -43 -75 -66 -76 -280 0 -154 3 -194 16 -220 58 -113
203 -117 261 -7 22 40 23 55 23 227 0 212 -8 242 -76 279 -55 29 -101 29 -148
1z"/>
<path d="M1292 4290 c-70 -32 -104 -120 -73 -191 37 -84 178 -313 204 -331 92
-66 222 -7 234 106 6 50 -5 74 -148 316 -65 108 -130 139 -217 100z"/>
<path d="M3690 4282 c-35 -23 -58 -54 -137 -192 -89 -156 -94 -168 -90 -212 8
-89 80 -147 168 -135 64 8 89 37 188 207 77 133 93 169 94 204 2 118 -125 190
-223 128z"/>
<path d="M2428 3605 c-2 -1 -28 -5 -58 -8 -49 -6 -86 -12 -180 -32 -72 -14
-199 -63 -315 -120 -454 -224 -776 -672 -842 -1170 -10 -74 -10 -333 -1 -396
l7 -47 -47 -7 c-55 -7 -275 -60 -347 -82 -195 -61 -549 -189 -583 -211 -80
-51 -77 -193 4 -246 52 -35 100 -31 234 19 318 119 583 201 717 220 21 4 45 8
53 10 65 18 332 27 415 14 80 -12 214 -54 407 -126 335 -124 484 -160 668
-161 193 -1 353 40 755 194 214 81 329 104 505 99 253 -7 501 -67 933 -226
104 -38 203 -69 219 -69 51 0 114 41 132 85 34 83 1 166 -81 202 -138 62 -471
174 -676 228 -128 33 -150 38 -229 51 l-37 6 7 47 c13 90 4 433 -12 459 -2 4
-7 26 -10 48 -34 228 -194 532 -385 736 -69 73 -250 228 -267 228 -4 0 -15 6
-23 14 -30 26 -180 104 -263 136 -137 54 -202 71 -358 95 -70 11 -332 18 -342
10z m285 -305 c427 -62 777 -313 958 -685 89 -184 122 -325 123 -525 0 -74 -1
-156 -4 -181 l-5 -46 -85 -7 c-112 -8 -136 -12 -230 -36 -76 -19 -137 -40
-498 -169 -343 -122 -505 -119 -877 19 -412 152 -538 185 -726 189 -21 1 -36
6 -37 14 -7 58 -9 312 -2 352 5 28 11 66 15 85 46 265 224 556 445 729 264
207 613 306 923 261z"/>
<path d="M433 3418 c-40 -11 -102 -71 -105 -101 -7 -115 8 -134 188 -240 82
-48 165 -92 186 -98 106 -33 205 61 184 174 -10 53 -43 82 -206 176 -160 92
-192 104 -247 89z"/>
<path d="M4621 3422 c-13 -2 -40 -13 -60 -24 -20 -12 -56 -32 -81 -46 -25 -14
-73 -43 -108 -64 -34 -21 -67 -38 -72 -38 -18 0 -62 -70 -67 -108 -16 -121
104 -209 213 -155 52 27 285 162 303 176 45 37 58 141 25 193 -30 44 -98 74
-153 66z"/>
<path d="M90 2207 c-49 -23 -90 -83 -90 -131 0 -41 30 -105 59 -125 40 -28 68
-31 256 -32 204 0 231 8 270 76 32 53 32 97 0 150 -39 67 -71 75 -288 74 -118
0 -191 -5 -207 -12z"/>
<path d="M4589 2200 c-41 -21 -79 -87 -79 -135 0 -37 42 -108 72 -122 45 -22
63 -23 239 -24 158 0 183 3 217 20 76 39 102 127 61 201 -41 73 -68 80 -286
80 -166 -1 -192 -3 -224 -20z"/>
<path d="M1638 985 c-2 -1 -25 -5 -53 -9 -121 -14 -190 -32 -430 -116 -99 -34
-195 -67 -214 -73 -105 -34 -143 -170 -71 -249 19 -21 81 -48 110 -48 18 0
202 61 350 115 58 21 176 55 215 61 17 3 48 9 69 14 22 5 90 7 150 6 118 -3
166 -16 386 -100 297 -114 470 -121 728 -31 53 18 158 55 232 81 122 43 145
47 235 50 55 1 131 -4 170 -12 39 -7 86 -16 105 -20 19 -3 127 -37 240 -75
281 -96 286 -97 342 -71 79 39 108 123 69 201 -24 46 -30 51 -111 83 -397 157
-738 227 -925 189 -27 -6 -61 -13 -75 -15 -43 -8 -125 -35 -261 -86 -304 -115
-374 -115 -677 -1 -233 88 -343 113 -492 110 -49 -1 -90 -3 -92 -4z"/>
</g>
</svg>
